<?xml version="1.0" standalone="no"?>
<!DOCTYPE svg PUBLIC "-//W3C//DTD SVG 20010904//EN"
 "http://www.w3.org/TR/2001/REC-SVG-20010904/DTD/svg10.dtd">
<svg version="1.0" xmlns="http://www.w3.org/2000/svg"
 width="582.000000pt" height="693.000000pt" viewBox="0 0 582.000000 693.000000"
 preserveAspectRatio="xMidYMid meet">

<g transform="translate(0.000000,693.000000) scale(0.100000,-0.100000)"
fill="#000000" stroke="none">
<path d="M4300 6829 c-77 -28 -155 -52 -235 -74 -49 -14 -124 -34 -165 -46
-63 -19 -115 -23 -325 -31 -258 -8 -303 -9 -344 -7 -35 1 -186 -155 -255 -264
-35 -56 -86 -161 -86 -177 0 -6 -10 -31 -21 -55 -19 -40 -21 -57 -15 -133 8
-123 22 -210 39 -259 9 -23 19 -63 23 -90 4 -26 19 -84 34 -128 15 -44 35
-111 45 -150 9 -38 24 -85 32 -103 8 -19 21 -79 29 -135 8 -56 18 -120 23
-142 35 -154 51 -239 49 -245 -2 -5 -35 22 -74 58 -39 37 -110 101 -159 142
-48 41 -124 107 -169 145 -44 39 -97 82 -116 96 -19 15 -83 69 -141 120 -58
52 -146 127 -195 168 -49 40 -146 127 -215 192 -129 123 -341 298 -394 326
-16 9 -39 18 -50 20 -11 2 -35 6 -54 9 -18 4 -56 2 -85 -5 -29 -6 -191 -13
-376 -15 -273 -4 -339 -8 -416 -24 -50 -11 -103 -17 -118 -15 -22 5 -35 -3
-78 -48 -128 -136 -186 -193 -218 -218 -59 -43 -128 -115 -135 -138 -5 -20 -3
-23 19 -23 14 0 26 -5 26 -11 0 -6 6 -9 13 -6 6 2 11 9 10 15 -1 5 7 8 18 5
18 -5 18 -7 5 -22 -8 -9 -31 -25 -50 -35 l-36 -19 -21 27 c-20 25 -22 26 -35
9 -16 -22 -18 -131 -3 -188 6 -22 21 -69 33 -105 33 -92 118 -426 131 -510 2
-14 10 -52 19 -85 8 -33 26 -112 41 -175 14 -63 30 -133 35 -155 6 -22 15 -80
20 -130 11 -89 31 -207 50 -295 6 -25 15 -83 21 -130 5 -47 19 -130 30 -185
23 -115 54 -305 73 -450 11 -82 55 -310 96 -495 4 -19 20 -93 35 -165 54 -256
99 -419 197 -705 67 -197 109 -333 117 -380 5 -25 15 -65 24 -90 17 -49 41
-160 35 -164 -1 -2 -37 -17 -78 -34 -97 -40 -164 -77 -232 -128 -62 -48 -169
-161 -189 -202 -8 -15 -27 -48 -42 -73 -24 -40 -28 -60 -34 -156 -8 -149 7
-193 97 -283 76 -76 113 -96 270 -141 l115 -33 490 -4 c495 -4 609 1 815 35
52 8 149 19 215 23 66 4 165 17 220 29 55 11 143 30 195 41 52 11 122 24 155
30 33 5 107 19 165 30 58 11 146 26 195 34 50 8 113 21 140 29 28 8 97 20 155
26 58 6 150 22 205 35 55 13 136 31 180 40 116 24 377 86 400 96 11 5 61 18
110 30 50 12 114 33 144 46 29 13 58 24 65 24 6 0 24 7 40 15 16 8 72 31 125
50 119 44 110 40 261 115 179 89 228 128 335 269 22 29 48 62 59 74 33 40 105
195 126 273 19 68 20 83 9 128 -25 102 -71 169 -148 214 -48 28 -118 51 -160
52 -13 0 -48 12 -77 26 -54 26 -82 28 -156 9 l-27 -7 32 60 c39 74 32 110 -23
128 -30 10 -37 18 -47 55 -6 24 -12 61 -12 81 -1 21 -6 57 -11 80 -12 52 -56
287 -64 344 -6 39 -37 149 -55 189 -5 11 -18 52 -30 90 -11 39 -30 102 -42
140 -11 39 -29 104 -40 145 -11 41 -36 120 -55 175 -41 116 -64 198 -89 310
-9 44 -25 107 -36 140 -10 33 -27 97 -38 141 -10 45 -26 97 -35 115 -8 19 -26
79 -40 134 -14 55 -31 127 -40 160 -8 33 -26 103 -41 155 -15 52 -29 111 -31
130 -3 19 -11 73 -19 120 -62 370 -76 532 -94 1095 -6 171 -15 356 -22 412 -6
56 -14 183 -17 284 l-7 182 43 18 c37 16 42 22 42 52 0 18 -5 38 -12 45 -14
14 -61 14 -98 1z m-57 -425 c0 -191 -4 -287 -12 -301 -6 -12 -11 -51 -11 -87
0 -35 -3 -72 -7 -82 -6 -16 -7 -16 -14 2 -5 10 -6 -6 -2 -36 3 -30 8 -57 10
-60 13 -15 23 38 23 127 0 56 4 112 9 125 6 13 13 41 18 63 5 25 10 -85 14
-300 8 -464 32 -769 79 -1025 11 -63 25 -142 31 -175 13 -80 47 -225 71 -305
10 -36 23 -85 28 -110 26 -124 41 -189 55 -230 28 -84 77 -264 106 -390 37
-167 51 -214 97 -350 47 -137 104 -328 127 -425 9 -38 30 -108 46 -156 16 -47
32 -107 35 -135 4 -27 13 -74 21 -104 14 -54 20 -85 44 -245 6 -44 22 -121 35
-171 13 -51 24 -100 24 -111 0 -10 -32 -68 -71 -128 -39 -60 -75 -119 -79
-131 -8 -20 -18 -22 -112 -28 -408 -24 -467 -20 -303 21 86 21 113 24 196 18
83 -6 101 -4 131 12 l35 19 -141 -3 c-107 -2 -156 -7 -204 -22 -56 -17 -66
-18 -90 -5 -15 8 -48 17 -75 20 -26 4 -50 11 -53 15 -10 17 -34 9 -34 -11 0
-13 10 -24 25 -30 22 -8 24 -13 16 -29 -8 -15 -24 -20 -67 -23 -54 -3 -80 8
-66 27 4 6 22 23 40 38 35 29 24 36 -18 12 -14 -8 -33 -14 -42 -15 -10 0 -44
-20 -77 -45 -104 -79 -105 -53 -1 46 52 51 90 94 84 96 -7 2 -26 -11 -44 -29
-37 -37 -53 -25 -25 18 20 31 14 40 -14 24 -12 -6 -38 -13 -59 -15 -30 -4 -33
-3 -19 6 10 6 21 8 24 5 3 -2 16 8 28 23 14 16 41 32 67 38 132 33 170 42 238
53 41 7 161 15 265 17 105 3 194 9 199 14 6 5 31 9 58 9 34 0 50 -5 57 -17 9
-15 10 -16 11 -2 0 9 9 24 20 34 28 26 25 50 -11 77 -29 24 -32 24 -107 12
-42 -6 -156 -15 -252 -18 -385 -15 -549 -57 -663 -172 l-46 -46 -47 39 c-72
59 -236 224 -264 265 -14 20 -57 78 -96 130 -39 51 -79 109 -89 128 -10 19
-32 53 -49 75 -46 57 -50 66 -36 75 16 10 1 37 -51 91 -57 58 -186 242 -249
355 -13 21 -31 67 -40 101 -30 104 -80 199 -111 210 -17 7 -37 29 -54 59 -50
92 -74 133 -118 201 -57 87 -112 198 -172 343 -26 63 -63 151 -81 195 -33 80
-105 266 -140 359 -10 27 -25 51 -33 53 -9 2 -27 27 -41 55 -24 48 -51 74 -64
61 -3 -3 -6 -30 -6 -58 0 -38 9 -73 34 -128 19 -41 43 -115 54 -163 25 -111
72 -290 107 -409 15 -49 36 -126 46 -170 10 -44 25 -105 34 -135 8 -30 19 -80
25 -110 20 -124 65 -297 107 -420 17 -47 35 -103 41 -125 6 -22 21 -74 33
-115 11 -41 29 -106 39 -145 9 -38 29 -106 43 -151 23 -71 42 -149 76 -299 17
-72 29 -147 51 -295 11 -80 27 -181 36 -226 9 -44 14 -93 12 -109 -3 -29 -6
-30 -88 -46 -47 -9 -114 -27 -150 -38 -36 -12 -101 -29 -144 -37 -76 -15 -148
-35 -191 -54 -11 -5 -45 -16 -75 -26 -30 -9 -59 -20 -64 -25 -6 -5 -16 -9 -23
-9 -25 0 -238 -111 -274 -143 -20 -18 -82 -74 -138 -125 -77 -70 -105 -91
-115 -83 -7 6 -18 55 -25 108 -7 54 -26 161 -43 238 -16 77 -36 174 -43 215
-8 41 -19 98 -25 125 -20 89 -28 129 -39 195 -6 36 -20 99 -30 140 -10 41 -24
100 -30 130 -47 231 -74 372 -92 475 -11 66 -29 145 -39 175 -10 30 -26 93
-35 140 -10 47 -24 105 -32 130 -24 73 -44 151 -54 210 -5 30 -13 78 -18 105
-11 59 -39 209 -51 280 -5 28 -19 115 -30 195 -38 262 -111 692 -133 780 -8
30 -26 114 -41 185 -15 72 -34 153 -41 180 -20 71 -62 276 -90 443 -13 78 -27
147 -30 152 -3 5 -1 11 5 15 6 4 4 15 -7 31 -9 14 -16 38 -15 54 0 16 -4 32
-9 35 -5 4 -9 16 -9 29 0 19 4 22 29 18 16 -2 40 -15 52 -28 l22 -24 -31 0
c-40 0 -41 -14 -2 -30 36 -15 36 -15 44 26 6 28 3 35 -23 54 -17 12 -31 30
-31 41 0 11 -6 22 -14 25 -11 4 -11 10 -2 29 11 24 34 31 134 42 33 3 52 10
52 18 0 9 -20 13 -70 13 -38 1 -77 5 -86 10 -23 13 32 20 237 32 90 6 223 14
294 19 72 6 169 7 217 4 58 -4 92 -2 101 5 11 9 33 -7 103 -76 50 -48 128
-118 174 -157 47 -38 119 -101 160 -140 84 -77 183 -165 405 -360 82 -71 178
-157 215 -191 36 -33 79 -69 95 -80 76 -48 307 -259 595 -541 186 -183 384
-346 438 -359 34 -9 72 20 72 57 0 28 -11 52 -68 149 -23 40 -148 406 -167
490 -7 30 -30 123 -52 205 -50 186 -69 277 -93 440 -7 44 -18 95 -26 114 -8
18 -14 51 -14 71 0 21 -4 60 -10 87 -51 246 -64 336 -79 528 -13 157 -26 240
-48 301 -11 32 -12 47 -4 63 10 18 17 20 54 14 71 -13 486 -9 542 5 28 7 115
30 195 51 80 21 149 38 154 37 5 -1 9 -128 9 -282z m-1023 84 c0 -7 7 -83 15
-168 9 -85 20 -202 25 -260 6 -58 14 -118 19 -135 5 -16 14 -57 21 -90 7 -33
19 -85 26 -116 8 -31 14 -77 14 -102 0 -24 8 -80 19 -123 10 -44 26 -140 35
-214 9 -74 28 -183 42 -243 l26 -107 -30 -34 c-30 -34 -59 -102 -48 -113 13
-14 36 10 61 64 l27 58 14 -30 c20 -46 17 -61 -22 -92 -19 -15 -48 -39 -62
-53 -35 -33 -110 -59 -121 -42 -13 22 -101 388 -121 507 -6 39 -22 108 -36
155 -81 289 -133 493 -150 589 -8 46 -26 108 -41 138 l-27 54 41 37 c23 20 63
71 89 112 44 71 71 106 138 186 29 35 46 43 46 22z m-2530 -578 c12 -7 8 -10
-15 -11 -16 0 -39 -4 -50 -9 -19 -8 -19 -9 2 -9 32 -1 39 -21 8 -21 -30 0 -43
24 -25 45 14 17 57 20 80 5z m-35 -80 c-3 -5 -10 -10 -16 -10 -5 0 -9 5 -9 10
0 6 7 10 16 10 8 0 12 -4 9 -10z m-104 -54 c5 -6 9 -24 9 -41 0 -34 -33 -65
-104 -97 -49 -23 -54 -23 -28 1 27 22 28 31 5 31 -13 0 -4 14 30 46 50 48 57
60 31 50 -18 -7 -11 8 20 42 l21 24 3 -24 c2 -12 8 -27 13 -32z m119 0 c-8 -8
-13 -7 -20 4 -12 20 -1 33 16 19 11 -9 12 -15 4 -23z m-85 -152 c7 -48 -14
-79 -48 -70 -12 3 -32 -5 -51 -19 -26 -20 -116 -59 -116 -50 0 11 196 193 201
187 4 -4 10 -26 14 -48z m9 -81 c9 -10 -174 -183 -193 -183 -33 0 35 80 129
154 48 38 53 40 64 29z m37 -133 c6 -30 12 -69 16 -87 5 -28 2 -33 -28 -49
-19 -9 -55 -35 -82 -57 -26 -22 -49 -38 -51 -36 -12 11 26 68 52 80 17 7 29
16 26 20 -2 4 7 16 21 27 14 11 25 25 25 32 0 8 -4 8 -15 -2 -30 -27 -44 -38
-50 -38 -4 0 -13 -7 -21 -15 -9 -8 -21 -15 -27 -15 -7 0 16 27 51 60 58 57 77
80 51 64 -6 -3 -15 -1 -19 6 -6 10 -21 3 -58 -28 -27 -23 -55 -48 -62 -57 -7
-8 -19 -15 -26 -15 -30 0 -11 29 46 74 35 28 60 55 60 66 0 10 15 30 32 44
l33 25 8 -22 c5 -12 13 -47 18 -77z m-401 43 c-1 -14 -50 -44 -60 -38 -16 10
-12 19 13 31 27 14 47 17 47 7z m75 -3 c3 -5 -3 -10 -15 -10 -12 0 -18 5 -15
10 3 6 10 10 15 10 5 0 12 -4 15 -10z m35 -89 c0 -12 -29 -35 -36 -28 -11 10
5 37 21 37 8 0 15 -4 15 -9z m-93 -76 c12 -13 13 -18 3 -30 -11 -13 -15 -12
-26 11 -8 14 -14 28 -14 30 0 10 23 3 37 -11z m83 -25 c0 -4 -6 -13 -14 -19
-11 -10 -14 -7 -12 12 0 15 6 23 14 20 6 -3 12 -9 12 -13z m120 16 c0 -5 -71
-76 -76 -76 -13 0 31 62 49 70 27 11 27 11 27 6z m235 -151 c9 -49 25 -117 35
-150 19 -66 38 -147 75 -335 34 -173 42 -211 64 -320 31 -149 49 -255 66 -390
8 -69 21 -159 29 -200 7 -41 23 -129 35 -195 12 -66 31 -172 42 -235 25 -148
35 -197 63 -295 13 -44 32 -116 41 -160 10 -44 26 -105 35 -135 9 -30 23 -82
30 -115 6 -33 23 -100 36 -150 13 -49 35 -157 49 -240 14 -82 34 -190 45 -240
11 -49 29 -146 40 -215 18 -117 27 -165 65 -345 7 -38 19 -101 26 -140 6 -38
15 -81 19 -95 5 -14 11 -52 15 -85 3 -33 13 -98 21 -144 l15 -84 -103 -104
c-115 -116 -133 -122 -153 -58 -48 152 -60 221 -40 229 13 5 10 40 -5 61 -4 6
-13 28 -20 50 -7 22 -19 49 -27 61 -18 29 -43 126 -41 166 1 30 -17 99 -33
123 -3 6 -18 64 -33 130 -15 66 -32 128 -37 137 -5 10 -9 27 -9 39 0 15 -5 19
-15 15 -12 -4 -14 3 -10 42 3 35 2 40 -4 17 l-7 -30 -17 39 c-9 21 -17 44 -17
51 0 7 -7 29 -15 48 -10 25 -15 71 -15 144 0 144 -13 188 -20 68 -5 -86 -6
-89 -19 -60 -26 58 -73 244 -125 495 -8 41 -20 100 -27 130 -6 30 -13 80 -16
110 -3 30 -9 60 -13 65 -9 11 -26 103 -35 188 -4 31 -11 57 -16 57 -5 0 -9 25
-9 55 0 30 -9 94 -21 142 -18 76 -19 95 -9 139 7 27 10 59 8 70 -5 17 -6 17
-16 -6 -11 -23 -12 -22 -10 17 1 23 -1 45 -5 49 -3 4 -2 15 3 25 6 9 12 46 14
81 2 35 11 83 20 108 17 43 33 111 20 80 -4 -8 -10 -17 -14 -20 -17 -11 -52
-85 -56 -119 -7 -53 -24 -63 -24 -14 0 28 11 64 35 109 19 37 35 71 35 75 0
17 -20 9 -21 -8 0 -11 -3 -13 -6 -6 -2 7 5 29 17 48 18 28 19 35 7 35 -9 0
-18 8 -20 18 -2 9 -3 7 -2 -5 1 -14 -3 -23 -11 -23 -8 0 -24 -21 -36 -47 -17
-36 -24 -43 -26 -28 -3 24 29 98 59 136 12 15 19 35 17 45 -3 16 -11 11 -51
-29 -35 -37 -47 -44 -47 -30 0 10 11 34 24 53 13 19 27 51 30 70 l8 35 -27
-37 c-24 -35 -45 -49 -45 -30 0 4 13 28 28 53 35 55 44 79 31 79 -6 0 -8 7 -5
16 16 42 18 65 5 62 -7 -2 -13 5 -14 15 0 10 -7 22 -15 27 -12 8 -12 12 -2 18
14 9 11 54 -4 59 -6 2 -21 -8 -34 -22 -13 -14 -27 -25 -32 -25 -15 0 -8 29 10
42 23 17 92 99 92 110 0 5 -12 1 -27 -9 l-26 -17 7 29 c4 16 11 32 14 35 11 8
34 52 30 56 -3 2 -29 -30 -59 -71 -30 -41 -60 -75 -66 -75 -27 0 -11 35 40 90
28 31 60 66 69 78 29 36 3 25 -29 -13 -17 -19 -33 -32 -36 -29 -3 4 17 33 44
66 66 79 53 89 -15 13 -58 -65 -82 -71 -41 -11 28 41 32 54 11 37 -18 -15 -33
4 -18 22 13 15 52 86 52 93 0 3 -9 2 -20 -1 -18 -6 -17 -1 10 48 16 30 27 57
23 60 -5 6 -103 -91 -103 -103 -1 -3 -11 -18 -24 -34 -16 -19 -26 -24 -31 -16
-4 6 2 21 12 33 11 12 29 32 40 45 29 33 58 96 54 120 -1 7 9 26 23 43 32 38
35 65 6 49 -29 -15 -25 -6 20 55 22 30 40 57 40 60 0 3 -11 3 -25 -1 -37 -9
-30 8 15 36 22 14 40 29 40 35 0 5 15 20 33 31 l32 22 7 -27 c4 -14 14 -66 23
-116z m-235 45 c0 -13 -49 -44 -57 -36 -9 8 27 46 44 46 7 0 13 -4 13 -10z
m-146 -25 c-7 -16 -24 -21 -24 -6 0 8 7 13 27 20 1 1 0 -6 -3 -14z m50 -99
c-20 -31 -41 -56 -45 -56 -5 0 -9 14 -9 31 0 17 4 28 10 24 5 -3 22 12 37 34
43 61 50 31 7 -33z m34 -53 c-9 -10 -14 -23 -12 -28 2 -6 -9 -19 -26 -28 -28
-17 -30 -17 -30 -1 0 9 17 32 38 49 38 34 57 38 30 8z m3159 -353 c14 -47 31
-105 39 -130 13 -42 12 -46 -7 -62 -12 -10 -31 -18 -42 -18 -19 0 -19 2 8 30
25 26 26 30 11 36 -10 4 -15 13 -12 21 10 25 -22 48 -52 37 -21 -7 -28 -17
-30 -42 -4 -35 -13 -40 -32 -17 -10 12 -6 22 24 57 43 49 45 68 10 68 l-25 0
21 30 c12 16 19 34 16 39 -8 12 23 43 36 39 6 -2 22 -42 35 -88z m-179 -18
c24 -7 28 -29 4 -24 -7 2 -19 -2 -26 -7 -9 -8 -19 -4 -36 14 l-23 25 29 -1
c16 -1 39 -4 52 -7z m272 -294 c0 -22 -8 -23 -32 -1 -21 19 -23 40 -7 80 l11
28 14 -45 c7 -25 14 -53 14 -62z m-1068 -783 c19 -33 43 -74 53 -91 17 -29 17
-32 2 -55 l-17 -23 0 37 c0 35 -6 42 -37 38 -7 -1 -15 11 -19 26 -3 15 -12 37
-18 48 -19 31 -38 104 -30 116 3 6 11 1 19 -13 7 -13 28 -50 47 -83z m115
-197 c17 -29 29 -58 26 -65 -9 -24 -21 -13 -28 27 -4 26 -13 41 -26 45 -10 4
-19 15 -19 26 0 31 13 22 47 -33z m-41 -78 c17 0 18 -12 2 -28 -10 -10 -10
-17 0 -32 11 -18 10 -22 -10 -29 -13 -5 -24 -7 -26 -6 -11 10 -18 122 -9 134
9 11 13 8 20 -13 5 -14 15 -26 23 -26z m144 -107 c52 -102 69 -132 109 -196
13 -21 33 -57 45 -80 11 -23 60 -101 107 -172 47 -72 105 -164 129 -205 24
-41 60 -98 80 -125 21 -28 47 -70 59 -94 13 -24 55 -86 94 -139 40 -52 81
-111 92 -130 11 -19 79 -91 150 -159 72 -68 137 -136 146 -151 15 -26 14 -29
-10 -66 -29 -44 -61 -130 -61 -163 0 -30 -40 -32 -58 -3 -10 16 -10 20 1 20
23 0 37 21 25 40 -9 13 -2 25 38 62 27 26 46 50 42 53 -4 4 -17 -3 -30 -15
-19 -18 -80 -50 -94 -50 -11 0 0 21 41 75 45 59 63 100 25 54 -60 -72 -104
-108 -116 -98 -11 9 -6 19 21 47 35 37 52 69 42 79 -3 3 -16 -11 -28 -30 -20
-30 -76 -64 -87 -52 -3 2 8 21 23 40 36 48 24 57 -19 16 -40 -39 -41 -39 -126
43 -68 66 -68 54 4 133 45 50 26 48 -31 -2 -56 -50 -64 -52 -84 -29 -11 13 -8
19 17 39 63 49 98 84 92 90 -3 4 -33 -14 -66 -39 -33 -25 -64 -46 -69 -46 -8
0 -61 60 -123 139 -33 43 -33 44 -17 72 18 32 16 35 -13 17 -17 -11 -22 -10
-30 2 -6 10 -5 16 3 19 16 5 67 53 67 63 0 11 -39 -9 -68 -35 -20 -18 -24 -19
-32 -7 -14 22 -13 27 16 49 25 20 26 21 5 21 -25 0 -26 3 -5 36 26 39 9 39
-29 -1 l-34 -36 -22 50 c-11 27 -21 54 -21 60 0 6 17 26 37 45 46 42 39 55
-11 21 -46 -32 -52 -31 -61 2 -6 25 0 34 47 75 62 56 50 63 -21 14 -36 -26
-51 -32 -60 -23 -16 16 -14 31 10 61 23 29 15 34 -18 11 -19 -14 -22 -13 -33
16 -12 29 -11 32 26 70 45 46 35 51 -21 8 -50 -37 -59 -20 -14 27 49 51 30 50
-26 -1 -27 -25 -54 -45 -62 -45 -29 0 -10 36 50 90 34 32 59 61 54 66 -4 4
-21 -5 -37 -21 -30 -29 -54 -31 -26 -2 29 29 3 26 -35 -4 -32 -25 -40 -28 -45
-15 -3 9 7 26 28 45 33 29 34 57 1 29 -21 -17 -53 -13 -53 7 0 8 15 28 33 45
l32 31 -23 19 -24 20 25 54 c26 56 23 80 -9 74 -20 -3 -21 3 -9 59 6 26 4 34
-10 39 -10 4 -21 1 -26 -7 -7 -11 -9 -10 -9 4 0 20 26 87 34 87 3 0 28 -44 56
-97z m104 35 c10 -39 7 -44 -9 -14 -17 33 -18 36 -6 36 5 0 11 -10 15 -22z
m23 -70 c-3 -8 -6 -5 -6 6 -1 11 2 17 5 13 3 -3 4 -12 1 -19z m18 -930 c79
-129 149 -234 186 -279 42 -50 46 -59 27 -59 -70 0 -158 -68 -158 -121 0 -20
-4 -29 -9 -23 -9 9 -22 79 -46 250 -8 55 -21 134 -30 175 -14 71 -19 119 -11
119 2 0 20 -28 41 -62z m1430 -557 c-3 -6 -11 -11 -16 -11 -5 0 -4 6 3 14 14
16 24 13 13 -3z m-410 -20 c5 -9 -31 -41 -47 -41 -12 0 -9 19 5 35 14 16 33
19 42 6z m-1311 -323 c-35 -34 -67 -58 -72 -53 -4 4 -1 10 6 12 6 3 12 11 12
19 0 13 -3 13 -22 0 -32 -23 -36 -20 -29 15 6 29 12 33 71 49 101 28 103 25
34 -42z m184 -10 c-14 -18 -35 -56 -48 -85 -21 -48 -39 -62 -77 -63 -7 0 5 19
28 43 22 23 47 56 56 72 19 37 43 65 56 65 5 0 -2 -15 -15 -32z m-340 -19
c-24 -30 -34 -37 -36 -25 -5 25 -27 19 -53 -14 -13 -16 -31 -30 -39 -30 -8 0
-37 -26 -65 -57 -27 -32 -71 -80 -96 -108 -72 -78 -73 -141 -2 -85 14 11 37
20 51 20 23 0 20 -3 -22 -36 -26 -19 -84 -53 -129 -75 -45 -22 -89 -43 -97
-48 -9 -5 -36 -12 -60 -15 -70 -11 -80 -16 -80 -36 0 -23 -5 -26 -53 -35 -26
-5 -37 -4 -37 5 0 13 119 140 131 140 4 0 10 -11 13 -25 7 -26 20 -32 31 -15
3 6 21 10 40 10 25 0 35 5 40 21 4 11 28 43 55 70 27 27 63 70 82 95 18 25 43
58 56 74 26 33 27 40 6 40 -8 0 -12 -4 -9 -10 9 -15 -2 -12 -19 6 -15 14 -19
13 -52 -15 -19 -17 -41 -31 -50 -31 -8 0 -40 -24 -71 -54 -52 -49 -73 -60 -73
-37 0 12 36 51 47 51 6 0 18 9 27 19 17 19 17 19 -3 14 -12 -3 -21 -1 -21 5 0
10 52 52 64 52 4 0 23 10 44 23 36 22 89 45 257 110 69 27 99 35 128 36 l28 1
-33 -41z m152 -64 c0 -8 -4 -15 -10 -15 -5 0 -7 7 -4 15 4 8 8 15 10 15 2 0 4
-7 4 -15z m-23 -47 c-3 -8 -6 -5 -6 6 -1 11 2 17 5 13 3 -3 4 -12 1 -19z m50
-34 c-3 -3 -12 -4 -19 -1 -8 3 -5 6 6 6 11 1 17 -2 13 -5z m-187 -49 c20 -24
7 -37 -83 -87 -92 -51 -97 -54 -97 -38 0 13 66 80 78 80 4 0 23 13 42 30 41
34 44 35 60 15z m-520 -13 c0 -12 -61 -66 -83 -75 -26 -10 -21 -1 25 43 42 39
58 48 58 32z m391 -25 c-16 -16 -26 0 -10 19 9 11 15 12 17 4 2 -6 -1 -17 -7
-23z m-451 -66 c0 -23 -100 -128 -127 -134 -15 -3 -53 -28 -83 -54 -30 -27
-68 -54 -83 -61 -21 -9 -27 -18 -25 -34 2 -18 -4 -23 -36 -30 -62 -13 -60 -10
39 82 39 35 79 80 91 100 11 19 29 40 40 45 11 6 42 23 69 40 83 50 90 53 103
54 6 1 12 -3 12 -8z m-149 -184 c-5 -7 -24 -21 -43 -31 l-33 -19 34 36 c19 20
38 34 43 31 5 -3 5 -11 -1 -17z m-17 -72 c-10 -8 -26 -14 -34 -15 -8 0 -2 9
15 20 33 22 49 18 19 -5z"/>
<path d="M1395 5920 c3 -5 12 -10 20 -10 22 0 113 -50 203 -113 46 -31 88 -57
93 -57 5 0 9 -4 9 -10 0 -5 5 -10 11 -10 6 0 33 -16 59 -35 46 -34 78 -46 65
-25 -7 11 -111 80 -121 80 -3 0 -43 27 -89 60 -46 33 -88 60 -94 60 -6 0 -11
5 -11 10 0 6 -6 10 -12 10 -7 0 -35 11 -62 25 -51 26 -82 32 -71 15z"/>
<path d="M4224 5620 c0 -113 2 -159 3 -102 2 56 2 148 0 205 -1 56 -3 10 -3
-103z"/>
<path d="M4234 5230 c0 -85 2 -120 3 -77 2 42 2 112 0 155 -1 42 -3 7 -3 -78z"/>
<path d="M2310 5254 c0 -6 20 -33 45 -59 25 -26 58 -63 73 -83 15 -21 29 -39
32 -42 3 -3 14 -21 24 -40 11 -19 27 -42 35 -50 9 -8 30 -33 46 -55 16 -22 35
-46 42 -54 8 -7 23 -31 34 -52 10 -21 24 -39 29 -39 23 0 1 37 -84 140 -25 30
-70 92 -100 137 -57 84 -175 217 -176 197z"/>
<path d="M4293 4675 c0 -38 2 -53 4 -32 2 20 2 52 0 70 -2 17 -4 1 -4 -38z"/>
<path d="M4313 4520 c0 -36 2 -50 4 -32 2 17 2 47 0 65 -2 17 -4 3 -4 -33z"/>
<path d="M4320 4408 c0 -13 5 -30 10 -38 7 -11 10 -5 10 23 0 20 -4 37 -10 37
-5 0 -10 -10 -10 -22z"/>
<path d="M4340 4303 c0 -40 4 -53 14 -53 11 0 13 9 9 38 -10 64 -22 72 -23 15z"/>
<path d="M2170 4231 c0 -6 5 -13 10 -16 6 -3 10 -16 11 -28 0 -12 3 -16 6 -9
7 18 -5 62 -17 62 -6 0 -10 -4 -10 -9z"/>
<path d="M2468 4164 c-12 -12 152 -376 202 -449 16 -23 41 -67 56 -98 26 -56
44 -73 44 -41 0 16 -38 76 -52 82 -4 2 -8 11 -8 20 0 8 -6 23 -14 31 -18 20
-61 94 -86 149 -36 76 -60 132 -60 138 0 3 -6 20 -14 37 -7 18 -21 52 -31 77
-21 52 -29 63 -37 54z"/>
<path d="M2217 4105 c3 -33 9 -68 14 -77 5 -9 9 -33 9 -52 0 -20 5 -36 11 -36
7 0 9 12 5 33 -3 17 -9 50 -12 72 -3 22 -9 49 -14 60 -5 11 -11 29 -14 40 -3
11 -2 -7 1 -40z"/>
<path d="M2261 3881 c-1 -36 2 -52 9 -45 6 6 6 26 1 54 l-9 45 -1 -54z"/>
<path d="M2278 3812 c-7 -25 2 -82 13 -82 5 0 6 21 2 48 -7 55 -9 59 -15 34z"/>
<path d="M2364 3523 c4 -16 9 -46 12 -68 3 -22 10 -49 14 -60 5 -11 11 -33 13
-50 3 -16 3 -1 0 35 -4 79 -24 170 -36 170 -5 0 -6 -12 -3 -27z"/>
<path d="M4600 3470 c0 -16 26 -40 44 -40 13 0 5 28 -12 43 -24 22 -32 21 -32
-3z"/>
<path d="M2427 3232 c2 -34 8 -74 13 -88 6 -14 10 -52 10 -84 0 -32 4 -61 9
-64 5 -3 11 -23 14 -43 3 -21 10 -56 16 -78 6 -22 11 -69 11 -105 1 -55 16
-125 20 -95 9 62 -7 195 -31 250 -4 11 -16 76 -24 145 -9 69 -21 134 -26 145
-4 11 -10 34 -12 50 -3 17 -3 2 0 -33z"/>
<path d="M4736 3030 c3 -30 9 -59 15 -64 5 -6 9 -20 9 -32 0 -13 5 -26 10 -29
6 -3 11 -18 11 -33 1 -20 3 -22 6 -8 5 18 -18 114 -38 161 -4 11 -10 29 -13
40 -3 11 -3 -5 0 -35z"/>
<path d="M4801 2817 c0 -22 6 -55 15 -75 40 -91 44 -97 44 -79 0 11 -7 35 -16
55 -9 21 -20 46 -25 57 -4 11 -10 34 -12 50 -3 26 -4 24 -6 -8z"/>
<path d="M2574 2548 c4 -13 9 -47 13 -76 3 -29 10 -55 14 -58 5 -3 9 -59 9
-125 0 -69 4 -119 10 -119 13 0 3 186 -16 303 -10 53 -21 97 -27 97 -5 0 -6
-10 -3 -22z"/>
<path d="M3540 2279 c0 -9 7 -22 16 -30 9 -7 29 -32 45 -56 31 -45 49 -55 49
-27 0 9 -25 41 -55 72 -34 36 -55 51 -55 41z"/>
<path d="M3785 2010 c16 -31 48 -54 68 -47 11 3 -60 77 -75 77 -5 0 -2 -13 7
-30z"/>
<path d="M2730 1882 c0 -21 11 -60 24 -87 14 -26 30 -67 37 -91 8 -24 17 -44
21 -44 11 0 10 26 -1 48 -5 9 -13 28 -19 42 -5 14 -17 41 -26 62 -9 20 -16 50
-16 66 0 17 -4 34 -10 37 -6 4 -10 -9 -10 -33z"/>
<path d="M1541 1808 c-1 -16 4 -28 9 -28 12 0 12 8 0 35 -8 18 -9 17 -9 -7z"/>
<path d="M1562 1740 c0 -14 2 -19 5 -12 2 6 2 18 0 25 -3 6 -5 1 -5 -13z"/>
<path d="M1582 1680 c0 -19 2 -27 5 -17 2 9 2 25 0 35 -3 9 -5 1 -5 -18z"/>
<path d="M1590 1615 c0 -8 4 -23 9 -33 11 -21 28 -62 34 -82 4 -11 6 -11 6 3
1 10 -6 34 -14 54 -8 19 -15 44 -15 54 0 11 -4 19 -10 19 -5 0 -10 -7 -10 -15z"/>
<path d="M1653 1455 c0 -22 2 -30 4 -17 2 12 2 30 0 40 -3 9 -5 -1 -4 -23z"/>
<path d="M1660 1386 c0 -14 5 -28 10 -31 6 -4 10 7 10 24 0 17 -4 31 -10 31
-5 0 -10 -11 -10 -24z"/>
<path d="M894 2234 c-4 -14 -2 -30 5 -37 8 -8 11 -1 11 26 0 43 -7 48 -16 11z"/>
<path d="M3067 2375 c-45 -26 -63 -42 -55 -51 7 -6 94 42 103 56 11 18 -12 16
-48 -5z"/>
<path d="M3128 2263 c7 -3 16 -2 19 1 4 3 -2 6 -13 5 -11 0 -14 -3 -6 -6z"/>
<path d="M3195 2169 c-11 -16 -1 -19 13 -3 7 8 8 14 3 14 -5 0 -13 -5 -16 -11z"/>
<path d="M3307 2143 c-3 -5 -31 -22 -61 -37 -31 -16 -56 -35 -56 -43 0 -10 6
-13 16 -9 9 3 19 6 23 6 13 0 96 78 89 85 -3 3 -8 2 -11 -2z"/>
<path d="M3303 2059 c-16 -18 -34 -38 -41 -45 -7 -7 -8 -15 -3 -18 9 -6 81 70
81 86 0 14 -9 9 -37 -23z"/>
<path d="M3307 1995 c-9 -23 11 -28 23 -5 8 16 8 20 -4 20 -7 0 -16 -7 -19
-15z"/>
<path d="M3463 1866 l-36 -33 20 -22 c20 -21 22 -22 51 -7 31 16 48 34 39 42
-2 2 -17 -2 -33 -11 -41 -21 -51 -19 -28 8 39 44 47 57 35 57 -6 0 -28 -15
-48 -34z"/>
<path d="M3574 1795 c-10 -8 -27 -15 -37 -15 -10 0 -27 -5 -38 -11 -16 -8 -18
-13 -9 -24 10 -12 16 -12 39 -1 14 8 37 26 50 40 27 29 25 34 -5 11z"/>
</g>
</svg>
